<svg id="Flat" height="512" viewBox="0 0 512 512" width="512" xmlns="http://www.w3.org/2000/svg"><path d="m376 392.62v32s32 63.38 64 63.38c32.985 0 24-39.38 24-39.38s24-8 24-40-24-40-24-40 8.985-40.62-24-40.62c-32 0-64 64.62-64 64.62z" fill="#ff8e26"/><path d="m376 408a8 8 0 0 1 -2.529-15.591l48-16a8 8 0 0 1 5.06 15.178l-48 16a7.988 7.988 0 0 1 -2.531.413z" fill="#e37e22"/><path d="m424 440a7.992 7.992 0 0 1 -2.531-.413l-48-16a8 8 0 0 1 5.06-15.178l48 16a8 8 0 0 1 -2.529 15.591z" fill="#e37e22"/><path d="m136 384.62v32s-32 63.38-64 63.38c-32.985 0-24-39.38-24-39.38s-24-8-24-40 24-40 24-40-8.985-40.62 24-40.62c32 0 64 64.62 64 64.62z" fill="#ff8e26"/><path d="m136 400a7.992 7.992 0 0 1 -2.531-.413l-48-16a8 8 0 1 1 5.06-15.178l48 16a8 8 0 0 1 -2.529 15.591z" fill="#e37e22"/><path d="m88 432a8 8 0 0 1 -2.529-15.591l48-16a8 8 0 0 1 5.06 15.178l-48 16a7.988 7.988 0 0 1 -2.531.413z" fill="#e37e22"/><circle cx="144" cy="168" fill="#dadcde" r="112"/><path d="m392.064 280.21h-.62c-95.25-.52-87.28-72-87.28-72 3.736-102.854 45.936-184.545 88-184.21 41.8.333 83.467 82.024 87.18 184.21 0 0 7.97 71.48-87.28 72z" fill="#dadcde"/><path d="m478.88 198.53c-19.05 8.36-49.06 17.47-86.72 17.47-38.2 0-68.51-9.01-87.54-17.47 2.85-47.06 13.71-89.16 28.73-120.21a177.024 177.024 0 0 0 58.81 9.68 177.136 177.136 0 0 0 58.17-9.46c14.93 31.06 25.71 73.1 28.55 119.99z" fill="#ff8e26"/><path d="m392.06 280.21h-.62c-95.25-.52-87.28-72-87.28-72q.18-4.875.46-9.68c19.03 8.46 49.34 17.47 87.54 17.47 37.66 0 67.67-9.11 86.72-17.47q.285 4.8.46 9.68s7.97 71.48-87.28 72z" fill="#f7b030"/><path d="m160 120c0 17.78-5.33 37.33-16 56-5.66-20.74-15.71-38.34-28.28-50.91-20.81-20.8-45.91-30.41-53.96-33.12a111.7 111.7 0 0 1 82.24-35.97s16 28.44 16 64z" fill="none"/><path d="m144 176c-20.74 5.66-38.34 15.71-50.91 28.28-14.5 14.51-23.56 31.1-28.65 42.55a111.59 111.59 0 0 1 -32.35-74.72c10.9-4.73 31.77-12.11 55.91-12.11 17.78 0 37.33 5.33 56 16z" fill="none"/><path d="m115.72 125.09c12.57 12.57 22.62 30.17 28.28 50.91-18.67-10.67-38.22-16-56-16-24.14 0-45.01 7.38-55.91 12.11-.07-1.36-.09-2.73-.09-4.11a111.642 111.642 0 0 1 29.75-76.03h.01c8.05 2.71 33.15 12.32 53.96 33.12z" fill="#ff8e26"/><path d="m214.2 255.27a111.506 111.506 0 0 1 -70.2 24.73q-3.6 0-7.14-.24c-4.26-11.69-8.86-28.7-8.86-47.76 0-17.78 5.33-37.33 16-56 5.66 20.74 15.71 38.34 28.28 50.91 14.24 14.24 30.5 23.23 41.92 28.36z" fill="none"/><path d="m93.09 204.28c12.57-12.57 30.17-22.62 50.91-28.28-10.67 18.67-16 38.22-16 56 0 19.06 4.6 36.07 8.86 47.76a111.559 111.559 0 0 1 -72.42-32.92v-.01c5.09-11.45 14.15-28.04 28.65-42.55z" fill="#ff8e26"/><path d="m256 168a110.723 110.723 0 0 1 -.66 12.14c-11.05 4.74-31.61 11.86-55.34 11.86-17.78 0-37.33-5.33-56-16 20.74-5.66 38.34-15.71 50.91-28.28 20.69-20.69 30.31-45.63 33.07-53.82a111.53 111.53 0 0 1 28.02 74.1z" fill="none"/><path d="m194.91 147.72c-12.57 12.57-30.17 22.62-50.91 28.28 10.67-18.67 16-38.22 16-56 0-35.56-16-64-16-64a111.728 111.728 0 0 1 83.98 37.9c-2.76 8.19-12.38 33.13-33.07 53.82z" fill="#ff8e26"/><path d="m255.34 180.14a111.766 111.766 0 0 1 -41.14 75.13c-11.42-5.13-27.68-14.12-41.92-28.36-12.57-12.57-22.62-30.17-28.28-50.91 18.67 10.67 38.22 16 56 16 23.73 0 44.29-7.12 55.34-11.86z" fill="#ff8e26"/><path d="m200 200a114.863 114.863 0 0 1 -41.99-8.4 98.289 98.289 0 0 0 19.93 29.65c13.44 13.44 28.92 21.95 39.54 26.72a7.857 7.857 0 0 1 2.77 2.06 110.819 110.819 0 0 1 -13.37 10.66 149.164 149.164 0 0 1 -40.26-28.12 114.682 114.682 0 0 1 -23.74-35.64 98.266 98.266 0 0 0 -6.88 35.07c0 18.21 4.56 34.53 8.38 45.02a7.7 7.7 0 0 1 .47 2.97c-.28.01-.57.01-.85.01a111.561 111.561 0 0 1 -15.93-1.13 148.979 148.979 0 0 1 -8.07-46.87 114.863 114.863 0 0 1 8.4-41.99 98.289 98.289 0 0 0 -29.65 19.93c-13.65 13.65-22.22 29.37-27 40.14a7.612 7.612 0 0 1 -1.48 2.23 111.229 111.229 0 0 1 -11.7-11.88c5.55-11.81 14.77-27.71 28.86-41.81a114.682 114.682 0 0 1 35.64-23.74 98.266 98.266 0 0 0 -35.07-6.88c-22.92 0-42.87 7.17-52.73 11.45a7.982 7.982 0 0 1 -2.62.64 112.2 112.2 0 0 1 -.65-12.09c0-1.53.03-3.06.1-4.57 11.78-4.79 32.38-11.43 55.9-11.43a114.863 114.863 0 0 1 41.99 8.4 98.289 98.289 0 0 0 -19.93-29.65c-19.73-19.73-43.91-28.86-50.86-31.2a8.007 8.007 0 0 1 -2.66-1.51 111.779 111.779 0 0 1 11.49-12.34c11.68 4.34 34.07 14.47 53.35 33.73a114.856 114.856 0 0 1 23.74 35.64 98.308 98.308 0 0 0 6.88-35.07c0-33.08-14.82-59.81-14.97-60.08a7.9 7.9 0 0 1 -1.02-3.63c2.64-.2 5.3-.29 7.99-.29 3.09 0 6.15.12 9.17.38 4.62 9.61 14.83 34.19 14.83 63.62a114.863 114.863 0 0 1 -8.4 41.99 98.289 98.289 0 0 0 29.65-19.93c19.67-19.67 28.82-43.79 31.15-50.71a7.883 7.883 0 0 1 2.08-3.25 112.315 112.315 0 0 1 11.39 13.05c-4.53 11.89-14.62 33.54-33.3 52.23a114.682 114.682 0 0 1 -35.64 23.74 98.266 98.266 0 0 0 35.07 6.88c22.66 0 42.42-7.02 52.19-11.21a7.937 7.937 0 0 1 3.72-.63 109.1 109.1 0 0 1 -1.95 17.18c-11.86 4.64-31.59 10.66-53.96 10.66z" fill="#464c4f"/><rect fill="#ff8e26" height="176" rx="48" width="240" x="136" y="312"/><path d="m192 312h128v176h-128z" fill="#f7b030"/><g fill="#464c4f"><path d="m192 312h16v176h-16z"/><path d="m304 312h16v176h-16z"/></g></svg>