<svg id="Color" enable-background="new 0 0 24 24" height="512" viewBox="0 0 24 24" width="512" xmlns="http://www.w3.org/2000/svg"><path d="m18.098 15.328-.159-.017h-11.877l-.159.017c-3.752.817-5.903 2.296-5.903 4.059 0 3.029 6.183 4.663 12 4.663s12-1.634 12-4.663c0-1.763-2.151-3.242-5.902-4.059z" fill="#455a64"/><path d="m19.18 19.57c-2.689 1.31-5.17 1.75-7.3 1.75-4.17 0-6.95-1.68-7.12-1.78-.3-.19-.43-.54-.32-.87l1.1-3.43.45-1.43 2.16-6.74c.18-.56.54-1.05 1.02-1.39l7.78-5.49c.27-.2.64-.19.899.02.261.21.351.57.221.88l-2.17 5.2c-.11.27-.12.56-.03.84l2.14 6.68.46 1.44 1.09 3.42c.12.35-.05.74-.38.9z" fill="#607d8b"/><g fill="#ffc107"><path d="m10.3 15.14c-.03.39-.35.69-.74.69h-.06c-.12-.01-.24-.02-.38-.04-.89-.08-2.15-.27-3.58-.55l.45-1.43c1.22.22 2.31.39 3.1.47.19.02.37.04.52.05.41.03.72.39.69.81z"/><path d="m18.47 15.25c-1.08.22-2.22.43-3.59.55-.12.01-.25.02-.38.03h-.06c-.391 0-.71-.3-.74-.69-.03-.42.28-.78.689-.81.181-.01.351-.03.521-.04v-.01c1.16-.1 2.13-.28 3.1-.47z"/><path d="m14.91 14.29v-.01c-.311-1.32-1.5-2.3-2.91-2.3s-2.6.98-2.91 2.3c-.06.22-.09.46-.09.7 0 .28.04.55.12.81.35 1.27 1.51 2.19 2.88 2.19s2.53-.92 2.88-2.18c.08-.26.12-.53.12-.82 0-.24-.03-.47-.09-.69z"/></g><path d="m12 16.48c-.83 0-1.5-.67-1.5-1.5 0-.82.67-1.5 1.5-1.5s1.5.68 1.5 1.5c0 .83-.67 1.5-1.5 1.5z" fill="#455a64"/><path d="m5.481 15.424c-3.49.834-5.481 2.267-5.481 3.963 0 2.723 4.996 4.318 10.232 4.613h1.768v-2.681c-.04 0-.08 0-.12 0-4.17 0-6.95-1.68-7.12-1.78-.3-.189-.43-.539-.32-.869z" fill="#3c4e57"/><path d="m5.54 15.24-.059.184-1.041 3.246c-.11.33.02.68.32.87.17.1 2.95 1.78 7.12 1.78h.12v-3.34c-1.37 0-2.53-.92-2.88-2.19-.89-.08-2.15-.27-3.58-.55zm6.46-11.557-2.83 1.997c-.48.34-.84.83-1.02 1.39l-2.16 6.74c1.22.22 2.31.39 3.1.47.311-1.32 1.5-2.3 2.91-2.3z" fill="#546d79"/><path d="m5.99 13.81-.45 1.43c1.43.28 2.69.47 3.58.55-.08-.26-.12-.53-.12-.81 0-.24.03-.48.09-.7-.79-.08-1.88-.25-3.1-.47z" fill="#dea806"/><path d="m12 11.98c-1.41 0-2.6.98-2.91 2.3-.06.22-.09.46-.09.7 0 .28.04.55.12.81.35 1.27 1.51 2.19 2.88 2.19v-1.5c-.83 0-1.5-.67-1.5-1.5 0-.82.67-1.5 1.5-1.5z" fill="#dea806"/><path d="m12 13.48c-.83 0-1.5.68-1.5 1.5 0 .83.67 1.5 1.5 1.5z" fill="#3c4e57"/></svg>